Acoustic at the BBC. (Guitar Performances) 2011 832x468 x264 aac mp4 w/subtitles [aularon]


- - -
Synopsis
- - -
A journey through some of the finest moments of acoustic guitar performances from the BBC archives, from Jimmy Page's television debut in 1958 to Oasis and Biffy Clyro. Other highlights include Neil Young's Heart of Gold, David Bowie's Starman, Donovan's Mellow Yellow, Joan Armatrading's Woncha Come on Home, Bert Jansch, Johnny Marr and Bernard Butler, and Joni Mitchell's Chelsea Morning.


- - -
URL
- - -        
http://www.bbc.co.uk/programmes/b0141mz1


- - -
Technical Details
- - -
General
Complete name                    : BBC.Acoustic.at.the.BBC/Acoustic_at_the_BBC_-_Acoustic_at_the_BBC_b0141mz1_default.mp4
Format                           : MPEG-4
Format profile                   : Base Media
Codec ID                         : isom
File size                        : 634 MiB
Duration                         : 59mn 2s
Overall bit rate                 : 1 502 Kbps
Movie name                       : Acoustic at the BBC
Album                            : Acoustic at the BBC
Performer                        : Acoustic at the BBC
Genre                            : Music,Classic Pop & Rock
Recorded date                    : 2011-09-02T22:00:00+01:00
Tagged date                      : UTC 2011-09-03 10:51:58
Writing application              : Lavf53.10.0
Cover                            : Yes
Comment                          : Recorded using get_iplayer, by Aularon.
rtng                             : 4
stik                             : 1
desc                             : A journey through some of the finest moments of acoustic guitar performances from the BBC archives, from Jimmy Page's television debut in 1958 to Oasis and Biffy Clyro.
tvnn                             : BBC Four
tvsh                             : Acoustic at the BBC
tven                             : b0141mz1
catg                             : Music,Classic Pop & Rock

Video
ID                               : 1
Format                           : AVC
Format/Info                      : Advanced Video Codec
Format profile                   : Main@L3.0
Format settings, CABAC           : Yes
Format settings, ReFrames        : 4 frames
Format settings, GOP             : M=4, N=42
Codec ID                         : avc1
Codec ID/Info                    : Advanced Video Coding
Duration                         : 59mn 2s
Bit rate mode                    : Constant
Bit rate                         : 1 404 Kbps
Width                            : 832 pixels
Height                           : 468 pixels
Display aspect ratio             : 16:9
Frame rate mode                  : Constant
Frame rate                       : 25.000 fps
Standard                         : PAL
Color space                      : YUV
Chroma subsampling               : 4:2:0
Bit depth                        : 8 bits
Scan type                        : Progressive
Bits/(Pixel*Frame)               : 0.144
Stream size                      : 592 MiB (93%)

Audio
ID                               : 2
Format                           : AAC
Format/Info                      : Advanced Audio Codec
Format profile                   : HE-AAC / LC
Codec ID                         : 40
Duration                         : 59mn 2s
Bit rate mode                    : Constant
Bit rate                         : 96.0 Kbps
Channel(s)                       : 2 channels
Channel positions                : Front: L R
Sampling rate                    : 48.0 KHz / 24.0 KHz
Compression mode                 : Lossy
Stream size                      : 40.0 MiB (6%)


                  ______                                     
                 (____  \                                    
                  ____)  )_____  ____ _____ _   _  ___ _____ 
                 |  __  (| ___ |/ ___|____ | | | |/___) ___ |
            _ _ _| |__)  ) ____( (___/ ___ | |_| |___ | ____|
           (_|_|_)______/|_____)\____)_____|____/(___/|_____)
                                                              
                   ______ _                 _             
                  / _____) |               (_)            
                 ( (____ | |__  _____  ____ _ ____   ____ 
                  \____ \|  _ \(____ |/ ___) |  _ \ / _  |
                  _____) ) | | / ___ | |   | | | | ( (_| |
                 (______/|_| |_\_____|_|   |_|_| |_|\___ |
                                                   (_____|
                                  _      
                                 (_)     
                                  _  ___ 
                                 | |/___)
                                 | |___ |
                                 |_(___/ 

                    _______             _               
                   (_______)           (_)              
                    _       _____  ____ _ ____   ____   
                   | |     (____ |/ ___) |  _ \ / _  |  
                   | |_____/ ___ | |   | | | | ( (_| |_ 
                    \______)_____|_|   |_|_| |_|\___ (_)
                                               (_____|  

                                    ;)

